# Tiled2Unity generated file. Do not modify by hand.
# Wavefront file for 'test_mesh_0002.obj'

# Vertices (Count = 588)
v -704 -272 0
v -720 -272 0
v -720 -256 0
v -704 -256 0
v -384 -272 0
v -400 -272 0
v -400 -256 0
v -384 -256 0
v -272 -272 0
v -288 -272 0
v -288 -256 0
v -272 -256 0
v -832 -288 0
v -848 -288 0
v -848 -272 0
v -832 -272 0
v -704 -288 0
v -720 -288 0
v -720 -272 0
v -704 -272 0
v -640 -288 0
v -656 -288 0
v -656 -272 0
v -640 -272 0
v -576 -288 0
v -592 -288 0
v -592 -272 0
v -576 -272 0
v -528 -288 0
v -544 -288 0
v -544 -272 0
v -528 -272 0
v -464 -288 0
v -480 -288 0
v -480 -272 0
v -464 -272 0
v -384 -288 0
v -400 -288 0
v -400 -272 0
v -384 -272 0
v -368 -288 0
v -384 -288 0
v -384 -272 0
v -368 -272 0
v -272 -288 0
v -288 -288 0
v -288 -272 0
v -272 -272 0
v -832 -304 0
v -848 -304 0
v -848 -288 0
v -832 -288 0
v -720 -304 0
v -736 -304 0
v -736 -288 0
v -720 -288 0
v -672 -304 0
v -688 -304 0
v -688 -288 0
v -672 -288 0
v -640 -304 0
v -656 -304 0
v -656 -288 0
v -640 -288 0
v -576 -304 0
v -592 -304 0
v -592 -288 0
v -576 -288 0
v -528 -304 0
v -544 -304 0
v -544 -288 0
v -528 -288 0
v -464 -304 0
v -480 -304 0
v -480 -288 0
v -464 -288 0
v -432 -304 0
v -448 -304 0
v -448 -288 0
v -432 -288 0
v -368 -304 0
v -384 -304 0
v -384 -288 0
v -368 -288 0
v -288 -304 0
v -304 -304 0
v -304 -288 0
v -288 -288 0
v -752 -320 0
v -768 -320 0
v -768 -304 0
v -752 -304 0
v -720 -320 0
v -736 -320 0
v -736 -304 0
v -720 -304 0
v -672 -320 0
v -688 -320 0
v -688 -304 0
v -672 -304 0
v -608 -320 0
v -624 -320 0
v -624 -304 0
v -608 -304 0
v -560 -320 0
v -576 -320 0
v -576 -304 0
v -560 -304 0
v -496 -320 0
v -512 -320 0
v -512 -304 0
v -496 -304 0
v -432 -320 0
v -448 -320 0
v -448 -304 0
v -432 -304 0
v -400 -320 0
v -416 -320 0
v -416 -304 0
v -400 -304 0
v -368 -320 0
v -384 -320 0
v -384 -304 0
v -368 -304 0
v -320 -320 0
v -336 -320 0
v -336 -304 0
v -320 -304 0
v -288 -320 0
v -304 -320 0
v -304 -304 0
v -288 -304 0
v -256 -320 0
v -272 -320 0
v -272 -304 0
v -256 -304 0
v -864 -336 0
v -880 -336 0
v -880 -320 0
v -864 -320 0
v -816 -336 0
v -832 -336 0
v -832 -320 0
v -816 -320 0
v -800 -336 0
v -816 -336 0
v -816 -320 0
v -800 -320 0
v -752 -336 0
v -768 -336 0
v -768 -320 0
v -752 -320 0
v -608 -336 0
v -624 -336 0
v -624 -320 0
v -608 -320 0
v -560 -336 0
v -576 -336 0
v -576 -320 0
v -560 -320 0
v -496 -336 0
v -512 -336 0
v -512 -320 0
v -496 -320 0
v -400 -336 0
v -416 -336 0
v -416 -320 0
v -400 -320 0
v -368 -336 0
v -384 -336 0
v -384 -320 0
v -368 -320 0
v -352 -336 0
v -368 -336 0
v -368 -320 0
v -352 -320 0
v -320 -336 0
v -336 -336 0
v -336 -320 0
v -320 -320 0
v -288 -336 0
v -304 -336 0
v -304 -320 0
v -288 -320 0
v -256 -336 0
v -272 -336 0
v -272 -320 0
v -256 -320 0
v -864 -352 0
v -880 -352 0
v -880 -336 0
v -864 -336 0
v -816 -352 0
v -832 -352 0
v -832 -336 0
v -816 -336 0
v -800 -352 0
v -816 -352 0
v -816 -336 0
v -800 -336 0
v -752 -352 0
v -768 -352 0
v -768 -336 0
v -752 -336 0
v -720 -352 0
v -736 -352 0
v -736 -336 0
v -720 -336 0
v -672 -352 0
v -688 -352 0
v -688 -336 0
v -672 -336 0
v -624 -352 0
v -640 -352 0
v -640 -336 0
v -624 -336 0
v -608 -352 0
v -624 -352 0
v -624 -336 0
v -608 -336 0
v -512 -352 0
v -528 -352 0
v -528 -336 0
v -512 -336 0
v -448 -352 0
v -464 -352 0
v -464 -336 0
v -448 -336 0
v -400 -352 0
v -416 -352 0
v -416 -336 0
v -400 -336 0
v -352 -352 0
v -368 -352 0
v -368 -336 0
v -352 -336 0
v -336 -352 0
v -352 -352 0
v -352 -336 0
v -336 -336 0
v -288 -352 0
v -304 -352 0
v -304 -336 0
v -288 -336 0
v -272 -352 0
v -288 -352 0
v -288 -336 0
v -272 -336 0
v -752 -368 0
v -768 -368 0
v -768 -352 0
v -752 -352 0
v -720 -368 0
v -736 -368 0
v -736 -352 0
v -720 -352 0
v -672 -368 0
v -688 -368 0
v -688 -352 0
v -672 -352 0
v -624 -368 0
v -640 -368 0
v -640 -352 0
v -624 -352 0
v -608 -368 0
v -624 -368 0
v -624 -352 0
v -608 -352 0
v -592 -368 0
v -608 -368 0
v -608 -352 0
v -592 -352 0
v -544 -368 0
v -560 -368 0
v -560 -352 0
v -544 -352 0
v -512 -368 0
v -528 -368 0
v -528 -352 0
v -512 -352 0
v -448 -368 0
v -464 -368 0
v -464 -352 0
v -448 -352 0
v -400 -368 0
v -416 -368 0
v -416 -352 0
v -400 -352 0
v -384 -368 0
v -400 -368 0
v -400 -352 0
v -384 -352 0
v -336 -368 0
v -352 -368 0
v -352 -352 0
v -336 -352 0
v -304 -368 0
v -320 -368 0
v -320 -352 0
v -304 -352 0
v -288 -368 0
v -304 -368 0
v -304 -352 0
v -288 -352 0
v -272 -368 0
v -288 -368 0
v -288 -352 0
v -272 -352 0
v -864 -384 0
v -880 -384 0
v -880 -368 0
v -864 -368 0
v -800 -384 0
v -816 -384 0
v -816 -368 0
v -800 -368 0
v -784 -384 0
v -800 -384 0
v -800 -368 0
v -784 -368 0
v -704 -384 0
v -720 -384 0
v -720 -368 0
v -704 -368 0
v -672 -384 0
v -688 -384 0
v -688 -368 0
v -672 -368 0
v -624 -384 0
v -640 -384 0
v -640 -368 0
v -624 -368 0
v -592 -384 0
v -608 -384 0
v -608 -368 0
v -592 -368 0
v -544 -384 0
v -560 -384 0
v -560 -368 0
v -544 -368 0
v -512 -384 0
v -528 -384 0
v -528 -368 0
v -512 -368 0
v -480 -384 0
v -496 -384 0
v -496 -368 0
v -480 -368 0
v -432 -384 0
v -448 -384 0
v -448 -368 0
v -432 -368 0
v -384 -384 0
v -400 -384 0
v -400 -368 0
v -384 -368 0
v -368 -384 0
v -384 -384 0
v -384 -368 0
v -368 -368 0
v -304 -384 0
v -320 -384 0
v -320 -368 0
v -304 -368 0
v -288 -384 0
v -304 -384 0
v -304 -368 0
v -288 -368 0
v -864 -400 0
v -880 -400 0
v -880 -384 0
v -864 -384 0
v -832 -400 0
v -848 -400 0
v -848 -384 0
v -832 -384 0
v -800 -400 0
v -816 -400 0
v -816 -384 0
v -800 -384 0
v -784 -400 0
v -800 -400 0
v -800 -384 0
v -784 -384 0
v -768 -400 0
v -784 -400 0
v -784 -384 0
v -768 -384 0
v -704 -400 0
v -720 -400 0
v -720 -384 0
v -704 -384 0
v -672 -400 0
v -688 -400 0
v -688 -384 0
v -672 -384 0
v -624 -400 0
v -640 -400 0
v -640 -384 0
v -624 -384 0
v -544 -400 0
v -560 -400 0
v -560 -384 0
v -544 -384 0
v -512 -400 0
v -528 -400 0
v -528 -384 0
v -512 -384 0
v -480 -400 0
v -496 -400 0
v -496 -384 0
v -480 -384 0
v -432 -400 0
v -448 -400 0
v -448 -384 0
v -432 -384 0
v -368 -400 0
v -384 -400 0
v -384 -384 0
v -368 -384 0
v -336 -400 0
v -352 -400 0
v -352 -384 0
v -336 -384 0
v -304 -400 0
v -320 -400 0
v -320 -384 0
v -304 -384 0
v -272 -400 0
v -288 -400 0
v -288 -384 0
v -272 -384 0
v -832 -416 0
v -848 -416 0
v -848 -400 0
v -832 -400 0
v -816 -416 0
v -832 -416 0
v -832 -400 0
v -816 -400 0
v -768 -416 0
v -784 -416 0
v -784 -400 0
v -768 -400 0
v -752 -416 0
v -768 -416 0
v -768 -400 0
v -752 -400 0
v -656 -416 0
v -672 -416 0
v -672 -400 0
v -656 -400 0
v -640 -416 0
v -656 -416 0
v -656 -400 0
v -640 -400 0
v -592 -416 0
v -608 -416 0
v -608 -400 0
v -592 -400 0
v -544 -416 0
v -560 -416 0
v -560 -400 0
v -544 -400 0
v -512 -416 0
v -528 -416 0
v -528 -400 0
v -512 -400 0
v -480 -416 0
v -496 -416 0
v -496 -400 0
v -480 -400 0
v -432 -416 0
v -448 -416 0
v -448 -400 0
v -432 -400 0
v -400 -416 0
v -416 -416 0
v -416 -400 0
v -400 -400 0
v -368 -416 0
v -384 -416 0
v -384 -400 0
v -368 -400 0
v -336 -416 0
v -352 -416 0
v -352 -400 0
v -336 -400 0
v -304 -416 0
v -320 -416 0
v -320 -400 0
v -304 -400 0
v -272 -416 0
v -288 -416 0
v -288 -400 0
v -272 -400 0
v -864 -432 0
v -880 -432 0
v -880 -416 0
v -864 -416 0
v -816 -432 0
v -832 -432 0
v -832 -416 0
v -816 -416 0
v -752 -432 0
v -768 -432 0
v -768 -416 0
v -752 -416 0
v -688 -432 0
v -704 -432 0
v -704 -416 0
v -688 -416 0
v -656 -432 0
v -672 -432 0
v -672 -416 0
v -656 -416 0
v -640 -432 0
v -656 -432 0
v -656 -416 0
v -640 -416 0
v -592 -432 0
v -608 -432 0
v -608 -416 0
v -592 -416 0
v -512 -432 0
v -528 -432 0
v -528 -416 0
v -512 -416 0
v -480 -432 0
v -496 -432 0
v -496 -416 0
v -480 -416 0
v -432 -432 0
v -448 -432 0
v -448 -416 0
v -432 -416 0
v -400 -432 0
v -416 -432 0
v -416 -416 0
v -400 -416 0
v -368 -432 0
v -384 -432 0
v -384 -416 0
v -368 -416 0
v -336 -432 0
v -352 -432 0
v -352 -416 0
v -336 -416 0
v -304 -432 0
v -320 -432 0
v -320 -416 0
v -304 -416 0
v -864 -448 0
v -880 -448 0
v -880 -432 0
v -864 -432 0
v -816 -448 0
v -832 -448 0
v -832 -432 0
v -816 -432 0
v -688 -448 0
v -704 -448 0
v -704 -432 0
v -688 -432 0
v -304 -448 0
v -320 -448 0
v -320 -432 0
v -304 -432 0
v -672 -752 0
v -688 -752 0
v -688 -736 0
v -672 -736 0
v -688 -768 0
v -704 -768 0
v -704 -752 0
v -688 -752 0
v -672 -768 0
v -688 -768 0
v -688 -752 0
v -672 -752 0
v -656 -768 0
v -672 -768 0
v -672 -752 0
v -656 -752 0
v -672 -784 0
v -688 -784 0
v -688 -768 0
v -672 -768 0

# Texture cooridinates (Count = 52)
vt 0.2283058 0.6463878
vt 0.2448347 0.6463878
vt 0.2448347 0.6768061
vt 0.2283058 0.6768061
vt 0.2985537 0.6463878
vt 0.3150826 0.6463878
vt 0.3150826 0.6768061
vt 0.2985537 0.6768061
vt 0.2634298 0.6463878
vt 0.2799587 0.6463878
vt 0.2799587 0.6768061
vt 0.2634298 0.6768061
vt 0.2283058 0.6140684
vt 0.2448347 0.6140684
vt 0.2448347 0.6444867
vt 0.2283058 0.6444867
vt 0.2809917 0.6463878
vt 0.2975207 0.6463878
vt 0.2975207 0.6768061
vt 0.2809917 0.6768061
vt 0.2985537 0.6140684
vt 0.3150826 0.6140684
vt 0.3150826 0.6444867
vt 0.2985537 0.6444867
vt 0.2634298 0.6140684
vt 0.2799587 0.6140684
vt 0.2799587 0.6444867
vt 0.2634298 0.6444867
vt 0.2809917 0.6140684
vt 0.2975207 0.6140684
vt 0.2975207 0.6444867
vt 0.2809917 0.6444867
vt 0.3336777 0.904943
vt 0.3502066 0.904943
vt 0.3502066 0.9353612
vt 0.3336777 0.9353612
vt 0.3863636 0.904943
vt 0.4028926 0.904943
vt 0.4028926 0.9353612
vt 0.3863636 0.9353612
vt 0.3336777 0.7756654
vt 0.3502066 0.7756654
vt 0.3502066 0.8060837
vt 0.3336777 0.8060837
vt 0.3688017 0.904943
vt 0.3853306 0.904943
vt 0.3853306 0.9353612
vt 0.3688017 0.9353612
vt 0.3336777 0.8403042
vt 0.3502066 0.8403042
vt 0.3502066 0.8707224
vt 0.3336777 0.8707224

# Normal
vn 0 0 -1

# Mesh description
g test_mesh_0002

# Faces
f 1/1/1 2/2/1 3/3/1 4/4/1
f 5/1/1 6/2/1 7/3/1 8/4/1
f 9/5/1 10/6/1 11/7/1 12/8/1
f 13/9/1 14/10/1 15/11/1 16/12/1
f 17/13/1 18/14/1 19/15/1 20/16/1
f 21/17/1 22/18/1 23/19/1 24/20/1
f 25/5/1 26/6/1 27/7/1 28/8/1
f 29/17/1 30/18/1 31/19/1 32/20/1
f 33/5/1 34/6/1 35/7/1 36/8/1
f 37/13/1 38/14/1 39/15/1 40/16/1
f 41/5/1 42/6/1 43/7/1 44/8/1
f 45/21/1 46/22/1 47/23/1 48/24/1
f 49/25/1 50/26/1 51/27/1 52/28/1
f 53/17/1 54/18/1 55/19/1 56/20/1
f 57/9/1 58/10/1 59/11/1 60/12/1
f 61/29/1 62/30/1 63/31/1 64/32/1
f 65/21/1 66/22/1 67/23/1 68/24/1
f 69/29/1 70/30/1 71/31/1 72/32/1
f 73/21/1 74/22/1 75/23/1 76/24/1
f 77/9/1 78/10/1 79/11/1 80/12/1
f 81/21/1 82/22/1 83/23/1 84/24/1
f 85/9/1 86/10/1 87/11/1 88/12/1
f 89/17/1 90/18/1 91/19/1 92/20/1
f 93/29/1 94/30/1 95/31/1 96/32/1
f 97/25/1 98/26/1 99/27/1 100/28/1
f 101/17/1 102/18/1 103/19/1 104/20/1
f 105/17/1 106/18/1 107/19/1 108/20/1
f 109/17/1 110/18/1 111/19/1 112/20/1
f 113/25/1 114/26/1 115/27/1 116/28/1
f 117/17/1 118/18/1 119/19/1 120/20/1
f 121/9/1 122/10/1 123/11/1 124/12/1
f 125/17/1 126/18/1 127/19/1 128/20/1
f 129/25/1 130/26/1 131/27/1 132/28/1
f 133/5/1 134/6/1 135/7/1 136/8/1
f 137/17/1 138/18/1 139/19/1 140/20/1
f 141/9/1 142/10/1 143/11/1 144/12/1
f 145/17/1 146/18/1 147/19/1 148/20/1
f 149/29/1 150/30/1 151/31/1 152/32/1
f 153/29/1 154/30/1 155/31/1 156/32/1
f 157/29/1 158/30/1 159/31/1 160/32/1
f 161/29/1 162/30/1 163/31/1 164/32/1
f 165/29/1 166/30/1 167/31/1 168/32/1
f 169/25/1 170/26/1 171/27/1 172/28/1
f 173/1/1 174/2/1 175/3/1 176/4/1
f 177/29/1 178/30/1 179/31/1 180/32/1
f 181/1/1 182/2/1 183/3/1 184/4/1
f 185/21/1 186/22/1 187/23/1 188/24/1
f 189/29/1 190/30/1 191/31/1 192/32/1
f 193/25/1 194/26/1 195/27/1 196/28/1
f 197/29/1 198/30/1 199/31/1 200/32/1
f 201/5/1 202/6/1 203/7/1 204/8/1
f 205/9/1 206/10/1 207/11/1 208/12/1
f 209/5/1 210/6/1 211/7/1 212/8/1
f 213/9/1 214/10/1 215/11/1 216/12/1
f 217/9/1 218/10/1 219/11/1 220/12/1
f 221/9/1 222/10/1 223/11/1 224/12/1
f 225/5/1 226/6/1 227/7/1 228/8/1
f 229/1/1 230/2/1 231/3/1 232/4/1
f 233/13/1 234/14/1 235/15/1 236/16/1
f 237/5/1 238/6/1 239/7/1 240/8/1
f 241/13/1 242/14/1 243/15/1 244/16/1
f 245/1/1 246/2/1 247/3/1 248/4/1
f 249/21/1 250/22/1 251/23/1 252/24/1
f 253/25/1 254/26/1 255/27/1 256/28/1
f 257/21/1 258/22/1 259/23/1 260/24/1
f 261/25/1 262/26/1 263/27/1 264/28/1
f 265/25/1 266/26/1 267/27/1 268/28/1
f 269/5/1 270/6/1 271/7/1 272/8/1
f 273/9/1 274/10/1 275/11/1 276/12/1
f 277/25/1 278/26/1 279/27/1 280/28/1
f 281/21/1 282/22/1 283/23/1 284/24/1
f 285/13/1 286/14/1 287/15/1 288/16/1
f 289/9/1 290/10/1 291/11/1 292/12/1
f 293/21/1 294/22/1 295/23/1 296/24/1
f 297/17/1 298/18/1 299/19/1 300/20/1
f 301/5/1 302/6/1 303/7/1 304/8/1
f 305/13/1 306/14/1 307/15/1 308/16/1
f 309/9/1 310/10/1 311/11/1 312/12/1
f 313/9/1 314/10/1 315/11/1 316/12/1
f 317/9/1 318/10/1 319/11/1 320/12/1
f 321/17/1 322/18/1 323/19/1 324/20/1
f 325/17/1 326/18/1 327/19/1 328/20/1
f 329/17/1 330/18/1 331/19/1 332/20/1
f 333/21/1 334/22/1 335/23/1 336/24/1
f 337/25/1 338/26/1 339/27/1 340/28/1
f 341/17/1 342/18/1 343/19/1 344/20/1
f 345/17/1 346/18/1 347/19/1 348/20/1
f 349/17/1 350/18/1 351/19/1 352/20/1
f 353/25/1 354/26/1 355/27/1 356/28/1
f 357/17/1 358/18/1 359/19/1 360/20/1
f 361/29/1 362/30/1 363/31/1 364/32/1
f 365/21/1 366/22/1 367/23/1 368/24/1
f 369/25/1 370/26/1 371/27/1 372/28/1
f 373/17/1 374/18/1 375/19/1 376/20/1
f 377/25/1 378/26/1 379/27/1 380/28/1
f 381/25/1 382/26/1 383/27/1 384/28/1
f 385/17/1 386/18/1 387/19/1 388/20/1
f 389/29/1 390/30/1 391/31/1 392/32/1
f 393/29/1 394/30/1 395/31/1 396/32/1
f 397/29/1 398/30/1 399/31/1 400/32/1
f 401/17/1 402/18/1 403/19/1 404/20/1
f 405/29/1 406/30/1 407/31/1 408/32/1
f 409/29/1 410/30/1 411/31/1 412/32/1
f 413/29/1 414/30/1 415/31/1 416/32/1
f 417/29/1 418/30/1 419/31/1 420/32/1
f 421/9/1 422/10/1 423/11/1 424/12/1
f 425/1/1 426/2/1 427/3/1 428/4/1
f 429/9/1 430/10/1 431/11/1 432/12/1
f 433/29/1 434/30/1 435/31/1 436/32/1
f 437/9/1 438/10/1 439/11/1 440/12/1
f 441/29/1 442/30/1 443/31/1 444/32/1
f 445/9/1 446/10/1 447/11/1 448/12/1
f 449/5/1 450/6/1 451/7/1 452/8/1
f 453/9/1 454/10/1 455/11/1 456/12/1
f 457/9/1 458/10/1 459/11/1 460/12/1
f 461/29/1 462/30/1 463/31/1 464/32/1
f 465/5/1 466/6/1 467/7/1 468/8/1
f 469/9/1 470/10/1 471/11/1 472/12/1
f 473/9/1 474/10/1 475/11/1 476/12/1
f 477/17/1 478/18/1 479/19/1 480/20/1
f 481/5/1 482/6/1 483/7/1 484/8/1
f 485/1/1 486/2/1 487/3/1 488/4/1
f 489/13/1 490/14/1 491/15/1 492/16/1
f 493/25/1 494/26/1 495/27/1 496/28/1
f 497/17/1 498/18/1 499/19/1 500/20/1
f 501/5/1 502/6/1 503/7/1 504/8/1
f 505/25/1 506/26/1 507/27/1 508/28/1
f 509/17/1 510/18/1 511/19/1 512/20/1
f 513/21/1 514/22/1 515/23/1 516/24/1
f 517/25/1 518/26/1 519/27/1 520/28/1
f 521/25/1 522/26/1 523/27/1 524/28/1
f 525/21/1 526/22/1 527/23/1 528/24/1
f 529/25/1 530/26/1 531/27/1 532/28/1
f 533/25/1 534/26/1 535/27/1 536/28/1
f 537/29/1 538/30/1 539/31/1 540/32/1
f 541/21/1 542/22/1 543/23/1 544/24/1
f 545/13/1 546/14/1 547/15/1 548/16/1
f 549/17/1 550/18/1 551/19/1 552/20/1
f 553/29/1 554/30/1 555/31/1 556/32/1
f 557/21/1 558/22/1 559/23/1 560/24/1
f 561/29/1 562/30/1 563/31/1 564/32/1
f 565/29/1 566/30/1 567/31/1 568/32/1
f 569/33/1 570/34/1 571/35/1 572/36/1
f 573/37/1 574/38/1 575/39/1 576/40/1
f 577/41/1 578/42/1 579/43/1 580/44/1
f 581/45/1 582/46/1 583/47/1 584/48/1
f 585/49/1 586/50/1 587/51/1 588/52/1

